<svg xmlns="http://www.w3.org/2000/svg" viewBox="0 0 340.78 367.32"><title>DoctorPatient</title><g id="Layer_2" data-name="Layer 2"><g id="Layer_1-2" data-name="Layer 1"><path d="M340.78,170.4a170.43,170.43,0,0,1-146.1,168.67c-7.93,1.13-18.36,26.11-22.64,28.25-6.4-3.2-17-27-24.41-28A170.4,170.4,0,1,1,340.78,170.4" style="fill:#fff"/><g id="TiF185"><path d="M282.43,196.92c-1.1-6.37-2.09-12.77-3.34-19.12-1.84-9.38-12.44-18.42-21.94-19-1.44-.1-2.64.14-2.57,1.63.16,3.21-2.29,7.16,1.25,9.51,8,5.3,7.49,13,6.41,20.84-.28,2-.26,4.81-3.37,4.72-1.8-.05-4.27.2-4.84-2.26-.64-2.75,1.63-2.63,3.36-3.8,3.1-2.08,1.89-6.59,1.15-10a8.24,8.24,0,0,0-7.49-6.92c-4-.46-7.56,1-9.15,4.58-1.45,3.29-5,7.08-.18,10.7,1.47,1.1,1.27,2.59.46,3.87-.91,1.44-2.48,1.28-3.94,1-1.74-.36-3-1-3.37-3.15-1.17-7.17,4.06-17.48,11.34-20.11,4.74-1.72,4.33-5.09,4.71-8.64.44-4.09-2.25-5.31-5.32-6.68-3.48-1.56-5.95-1.64-9,1.44-4.67,4.75-8.47,13.48-14.57,12.87-5.14-.51-10-7.8-14.2-12.73-4.78-5.59-8.89-1.87-12.73.37-3.17,1.86-2.43,10.29.62,13,1.08,1,2.55,1.61,3.36,2.74,2.71,3.84,2.82,7.77-.72,11.17s-7.54,3.4-11.19.4-4.07-7-1.51-11.08c.75-1.2,2.27-1.9,3.06-3.08a9.36,9.36,0,0,0,.22-9.65c-1.34-2.31-4.18.68-6.39,1.21-11.55,2.79-17.85,10-18.42,22a9,9,0,0,1-.75,2.8c-.15.38-.66.63-1,.93-4.2-7.16,1-21.25,9.56-25.15,8.4-3.81,17-7.19,25.55-10.66s9.59-6.78,4.19-13.76c-6.14-8-7.64-18.3-13.75-26.25a2.5,2.5,0,0,1-.41-2.08c4.38-9.19.92-19.17,2.95-28.59,1.32-6.16,4.18-11,11-12a7.55,7.55,0,0,0,5.32-3.23c5.95-7.87,14-9.05,22.88-6.41,17.06,5,28.24,22.4,25.6,39.95-.39,2.55-.42,4.68.87,6.93a6.06,6.06,0,0,1-.4,6.92c-6.55,8.23-7.84,19.23-14.93,27.31-3.64,4.14-1,8.13,3.8,10.16,8,3.43,16,7.09,24.25,10S281.49,168,282.7,176.5c1,6.73,3,13.38,2.16,20.2Zm-59.62-52.57c.8-.12,2-.23,3.19-.5,17.7-4,18.36-21.68,26.15-33.46,3.8-5.74-5.29-7.48-7-12a40.18,40.18,0,0,0-3.26-5.66c-4.09-6.93-10.1-9.62-17.87-7.29a16.71,16.71,0,0,1-11.27-.28c-7.08-2.62-11.77.26-12.74,8-.58,4.66-1.92,8.4-6,10.94-2.32,1.43-3.9,4-2.05,6.11,5.81,6.57,6.38,15.62,11.4,22.54C208.12,139.41,213.8,144.19,222.81,144.35ZM251.3,98.8c2.43-10.75-.94-19.46-7.6-27S229,59.8,218.66,61a7.86,7.86,0,0,0-4,1.51c-5.08,4.44-9.16,10.28-16.76,11-.84.08-1.84,1.65-2.23,2.72a32.82,32.82,0,0,0-1,20.83,4.8,4.8,0,0,0,1.22-2.71c2.12-12.31,7.52-15.85,19.23-12.3a13.56,13.56,0,0,0,7.81-.23c9.83-2.56,17,.49,22.21,9.14C246.7,93.61,247.44,96.9,251.3,98.8Zm-41.53,46.1c-2.26.91-3.56,3.16-1.73,5.33,3.87,4.59,8.33,8.69,12.59,12.94,1.23,1.21,2.57,1.1,3.78-.16q5.75-6,11.5-12a3.71,3.71,0,0,0,.45-4.67c-1.12-2.14-2.8-1.31-4.33-.58a21.92,21.92,0,0,1-14.1,1.8A76.8,76.8,0,0,1,209.77,144.9Zm-12.56,31.78c-.51-2.77-2.11-4.28-4.94-4.21-3,.08-4.33,2.06-4.16,4.75s1.85,4.45,4.75,4.23S197.06,179.46,197.21,176.68Z" style="fill:#f04a4a;stroke:#f04a4a;stroke-miterlimit:10;stroke-width:2px"/><path d="M45.06,252.39c-.29-9.47-.75-18.95.43-28.47,0-.23.14-.59.3-.64,9.36-3.48,7.31-13.2,10.86-19.84,1.82-3.41,4.77-5.42,8.21-6.87,9.64-4,19.29-8,28.89-12.15,7-3,8-7.29,3.31-13.25a58.53,58.53,0,0,1-8.55-16c-1.27-3.41-2.19-6.91-5.09-9.48-1.51-1.34-2.51-3.69-1.77-5.32,4.43-9.7.58-20.08,2.84-30,1.62-7.1,4.4-12.81,11.71-15.36a9.06,9.06,0,0,0,2.52-1.41C113.6,82.1,128.63,83,142,96.33c9.15,9.14,13.41,20.1,11.34,33.12-.3,1.92-.93,3.7.19,5.61,2.77,4.71.94,8.36-2,12.59-3.09,4.51-4.55,10.1-7,15.08a53.81,53.81,0,0,1-5.4,8.61c-4.53,6-3.4,10.19,3.82,13.21,8.52,3.57,16.91,7.48,25.6,10.56,8.28,2.95,12.76,8.49,13.89,16.95.53,4,1.32,7.52,6,8.88,1.88.54,2.93,2.69,3,4.71.1,8.89,0,17.79,0,26.64-3.76.16-3.25-2-3.28-3.51-.13-6.07-.28-12.16-.05-18.23.2-5.11-1.4-7.48-7-7.45q-62.73.22-125.45,0c-5.89,0-7.62,2.34-7.35,7.88.35,7.12.09,14.28.09,21.42Zm72.77-76.8c6.59-.64,14.66.56,18.17-6.54,5.58-11.3,17.07-20.78,12.39-35.72-.18-.57.37-1.38.59-2.07,3.37-10.48.29-19.75-5.92-28.08-6.58-8.81-15.45-13.79-26.7-14.18-7.35-.26-11.32,6-17,8.4-9.3,3.87-10.91,10.59-11.92,18.88-1,7.72,3,15.93-2.29,23.26a2.94,2.94,0,0,0,.56,2.71c5.6,5.56,6.46,13.44,9.85,20.08C100.3,171.52,107.25,176.37,117.83,175.59Zm.39,43.79c18.7,0,37.41.05,56.12-.08,1.95,0,5.15,1.54,5.28-2.8.21-6.89-3.94-14.12-10.36-16.9-8.68-3.77-17.52-7.18-26.17-11a13.8,13.8,0,0,0-11.15-.58c-6.72,2.47-14.35,4.14-20.74,1.52-11.18-4.59-20.25-.1-29.79,3.93-4,1.7-7.92,3.79-12.06,5.09-7.12,2.24-10.44,7.06-11.91,14.14-1,5.08-.17,6.88,5.38,6.8C81.28,219.2,99.75,219.37,118.22,219.38Zm0-32.7a47.31,47.31,0,0,0,13-2.3c1.75-.62,3.27-1.29,2.43-3.57-.68-1.85-1.31-3.68-4.05-3a45.3,45.3,0,0,1-22.34.14c-2.47-.61-3.57.49-4.38,2.56-1,2.63.57,3.4,2.6,4.11C109.66,186.11,114,186.4,118.18,186.68Z" style="fill:#f04a4a;stroke:#f04a4a;stroke-miterlimit:10;stroke-width:2px"/></g></g></g></svg>