<svg xmlns="http://www.w3.org/2000/svg" viewBox="0 0 340.78 367.32"><title>Not Cured</title><g id="Layer_2" data-name="Layer 2"><g id="Layer_1-2" data-name="Layer 1"><path d="M340.78,170.4a170.43,170.43,0,0,1-146.1,168.67c-7.93,1.13-18.36,26.11-22.64,28.25-6.4-3.2-17-27-24.41-28A170.4,170.4,0,1,1,340.78,170.4" style="fill:#fff"/><path d="M203.48,132.52c2.69-3.12,5.19-6.4,8.08-9.31q22.73-22.9,45.61-45.67c1-1,2-2,3.11-3,1.37-1.16,2.88-1.38,4.31-.09a3.24,3.24,0,0,1,.39,4.7A27.12,27.12,0,0,1,262,82.32L83.89,260.47c-.57.57-1.14,1.12-1.7,1.69-1.75,1.75-3.75,2.81-5.78.71-1.86-1.94-.75-3.8.85-5.41,3.61-3.6,7.19-7.23,10.8-10.83L131,203.7c.77-.78,1.49-1.63,2.28-2.5-1.35-1.92-3.26-1.06-4.83-1.07-18.65-.06-37.29,0-55.94,0-6.41,0-6.85-.42-6.86-6.73q0-24.87,0-49.72c0-5.78.47-6.18,6.34-6.19H132.7c6.83,0,6.84,0,6.84-6.6,0-20.08.11-40.16-.08-60.24-.05-4.62,1.57-6.19,6.08-6.15q25.1.24,50.19,0c4.7,0,6,1.83,5.93,6.28-.19,18.48-.08,37-.08,55.45v5.12l1.9,1.23M109,144.12v0c-10.67,0-21.35.12-32-.07-3.51-.06-4.68,1-4.63,4.59.2,13.37.22,26.75,0,40.13-.05,3.73,1.26,4.48,4.69,4.46,20.23-.14,40.46-.11,60.69,0a8.6,8.6,0,0,0,6.72-2.75q23.72-23.94,47.64-47.65a9.24,9.24,0,0,0,2.95-7.15c-.09-19.91-.15-39.83,0-59.73,0-4-1.4-4.76-5-4.71-12.9.18-25.81.28-38.71,0-4.46-.11-5.24,1.52-5.2,5.5.18,20.54,0,41.1.18,61.64,0,4.28-1.41,6-5.81,5.92-10.51-.22-21-.08-31.54-.08" style="fill:#f04a4a"/><path d="M237.67,200.09c-10.52,0-21,.14-31.56-.07-3.61-.07-4.62,1.17-4.6,4.67.14,20.88,0,41.75.15,62.62.05,4.62-1.53,6.19-6.06,6.14-16.73-.16-33.46-.13-50.19,0-4.18,0-6-1.26-5.95-5.78.21-15.45.09-30.91.08-46.37,0-2.6-.28-5.54,3.5-5.48,3.51.05,3.17,2.89,3.17,5.28,0,13.39.19,26.78-.12,40.15-.1,4.57,1.45,5.57,5.71,5.48,12.43-.26,24.87-.28,37.29,0,4.46.11,6-1,6-5.7-.27-20.24-.12-40.48-.15-60.72,0-6.9.3-7.21,7.36-7.2,20.56,0,41.11-.06,61.67.1,3.6,0,5-.77,4.91-4.7q-.37-19.83,0-39.67C268.9,145,267.65,144,264,144c-13.7.19-27.41.07-41.11.1-2.64,0-5.65.08-5.55-3.5.09-3.17,2.86-3.21,5.39-3.2,15.77,0,31.55.12,47.32,0,4.25-.05,5.59,1.67,5.57,5.66q-.15,25.58,0,51.16c0,4.28-1.53,6-5.89,5.95-10.67-.17-21.35,0-32,0" style="fill:#f04a4a"/></g></g></svg>